<svg width="52" height="52" viewBox="0 0 52 52" fill="none" xmlns="http://www.w3.org/2000/svg">
<rect width="52" height="52" rx="6" fill="#4DA688"/>
<path d="M12 41.3307V33.3307L18 31.9974L24 33.3307V41.3307M14.6667 25.3307L21.3333 26.6641M26.6667 21.3307L33.3333 14.6641L30 10.6641L26.6667 13.3307L23.3333 10.6641L20 14.6641L26.6667 21.3307ZM21.3333 29.3307L18 30.6641L14.6667 29.3307V23.9974L18 22.6641L21.3333 23.9974V29.3307Z" stroke="#FEFEFE" stroke-width="1.2" stroke-miterlimit="10" stroke-linecap="round" stroke-linejoin="round"/>
<path d="M21.2719 32.7241L17.9999 35.9974L14.7266 32.7241M27.9999 41.3307V33.3307L33.9999 31.9974L39.9999 33.3307V41.3307M30.6666 25.3307L37.3332 26.6641M37.3332 29.3307L33.9999 30.6641L30.6666 29.3307V23.9974L33.9999 22.6641L37.3332 23.9974V29.3307Z" stroke="#FEFEFE" stroke-width="1.2" stroke-miterlimit="10" stroke-linecap="round" stroke-linejoin="round"/>
<path d="M37.2719 32.7266L33.9999 35.9999L30.7266 32.7266" stroke="#FEFEFE" stroke-width="1.2" stroke-miterlimit="10" stroke-linecap="round" stroke-linejoin="round"/>
</svg>
