<svg width="101" height="121" viewBox="0 0 101 121" fill="none" xmlns="http://www.w3.org/2000/svg">
<path opacity="0.1" d="M100.731 50.3655C100.731 78.1816 78.1816 100.731 50.3655 100.731C22.5494 100.731 0 78.1816 0 50.3655C0 22.5494 22.5494 0 50.3655 0C78.1816 0 100.731 22.5494 100.731 50.3655Z" fill="#4AB27F"/>
<path d="M24.5684 39.9212C24.5684 34.4936 28.9682 30.0938 34.3958 30.0938H66.3349C71.7624 30.0938 76.1623 34.4936 76.1623 39.9212V111.17C76.1623 116.597 71.7624 120.997 66.3349 120.997H34.3958C28.9682 120.997 24.5684 116.597 24.5684 111.17V39.9212Z" fill="#4AB27F"/>
<path fill-rule="evenodd" clip-rule="evenodd" d="M66.3349 31.3222H34.3958C29.6467 31.3222 25.7968 35.1721 25.7968 39.9212V111.17C25.7968 115.919 29.6467 119.769 34.3958 119.769H66.3349C71.0839 119.769 74.9338 115.919 74.9338 111.17V39.9212C74.9338 35.1721 71.0839 31.3222 66.3349 31.3222ZM34.3958 30.0938C28.9682 30.0938 24.5684 34.4936 24.5684 39.9212V111.17C24.5684 116.597 28.9682 120.997 34.3958 120.997H66.3349C71.7624 120.997 76.1623 116.597 76.1623 111.17V39.9212C76.1623 34.4936 71.7624 30.0938 66.3349 30.0938H34.3958Z" fill="#299470"/>
<path d="M29.4824 47.2947C29.4824 45.2593 31.1324 43.6094 33.1677 43.6094H67.5636C69.599 43.6094 71.2489 45.2593 71.2489 47.2947V105.645C71.2489 107.68 69.599 109.33 67.5636 109.33H33.1677C31.1324 109.33 29.4824 107.68 29.4824 105.645V47.2947Z" fill="white"/>
<path fill-rule="evenodd" clip-rule="evenodd" d="M53.4361 58.3516H47.294V64.1866H41.459V70.3287H47.294V76.1637H53.4361V70.3287H59.2712V64.1866H53.4361V58.3516Z" fill="#4AB27F"/>
<path d="M39.3086 85.372C39.3086 85.0328 39.5836 84.7578 39.9228 84.7578H60.8061C61.1453 84.7578 61.4203 85.0328 61.4203 85.372C61.4203 85.7112 61.1453 85.9862 60.8061 85.9862H39.9228C39.5836 85.9862 39.3086 85.7112 39.3086 85.372Z" fill="#1E7B4E"/>
<path d="M39.3086 92.1298C39.3086 91.7906 39.5836 91.5156 39.9228 91.5156H50.3644C50.7037 91.5156 50.9786 91.7906 50.9786 92.1298C50.9786 92.4691 50.7037 92.7441 50.3644 92.7441H39.9228C39.5836 92.7441 39.3086 92.4691 39.3086 92.1298Z" fill="#1E7B4E"/>
<path d="M44.8379 36.8486C44.8379 36.5094 45.1129 36.2344 45.4521 36.2344H55.2795C55.6187 36.2344 55.8937 36.5094 55.8937 36.8486C55.8937 37.1878 55.6187 37.4628 55.2795 37.4628H45.4521C45.1129 37.4628 44.8379 37.1878 44.8379 36.8486Z" fill="#1E7B4E"/>
</svg>
